<svg xmlns="http://www.w3.org/2000/svg" viewBox="0 0 78.96 89.97"><defs><style>.cls-1{fill:#fff;}</style></defs><title>Asset 4</title><g id="Layer_2" data-name="Layer 2"><g id="Layer_1-2" data-name="Layer 1"><path class="cls-1" d="M2,90A3.12,3.12,0,0,1,0,86.63,34.25,34.25,0,0,1,12.93,60.31,32.65,32.65,0,0,1,34.4,52.72c3.47,0,7-.06,10.42,0,12.31.22,21.79,5.67,28.6,15.83A33.53,33.53,0,0,1,79,86.63,3.13,3.13,0,0,1,77,90Z"/><path class="cls-1" d="M41.76,0c1.35.37,2.77.44,4.12.87,9.32,3,15.15,9.22,16.89,18.88A23.67,23.67,0,1,1,34.94.4,6.92,6.92,0,0,0,36.85,0Z"/></g></g></svg>