<svg xmlns="http://www.w3.org/2000/svg" viewBox="0 0 80.22 104.53"><defs><style>.cls-1{fill:#fff;}</style></defs><title>Asset 6</title><g id="Layer_2" data-name="Layer 2"><g id="Layer_1-2" data-name="Layer 1"><path class="cls-1" d="M80.21,32.57c0-2.22-.09-2.31-2.28-2.32h-22a7.75,7.75,0,0,1-3.84-.83A6.85,6.85,0,0,1,48.4,23q0-10.6,0-21.2A2.42,2.42,0,0,0,48.06,0H9.72A10.73,10.73,0,0,0,6.31.92C2.27,3.24,0,6.63,0,11.36Q0,52.19,0,93c0,.27,0,.55,0,.82.19,5.45,5.08,10.71,10.69,10.69,19.61,0,39.22,0,58.82,0a8.25,8.25,0,0,0,3.87-.76C77.76,101.51,80.2,98,80.2,93Q80.25,62.8,80.21,32.57ZM61.38,46.91c1.75,0,2.93.71,3.4,2A3.06,3.06,0,0,1,61.64,53C56.11,53,50.57,53,45,53H17.51a3.24,3.24,0,0,1-3.27-1.94,3.06,3.06,0,0,1,2.7-4.16c.24,0,.48,0,.71,0Zm-48.8-22.4A3.17,3.17,0,0,1,16,21.42c1.53,0,3.06-.09,4.58,0,1,.07,1.23-.29,1.18-1.23-.09-1.52,0-3.06,0-4.58a3.07,3.07,0,1,1,6.11,0c0,1.7,0,3.4,0,5.1,0,.57.15.74.73.73,1.69,0,3.39,0,5.09,0a3.07,3.07,0,1,1,0,6.11H31.21a20.28,20.28,0,0,1-2.34,0c-.9-.1-1.05.26-1,1.07.07,1.56,0,3.13,0,4.69a3.07,3.07,0,1,1-6.11,0c0-1.7,0-3.4,0-5.09,0-.54-.15-.69-.68-.68-1.7,0-3.4,0-5.1,0A3.16,3.16,0,0,1,12.58,24.51Zm19,61.14c-2.37,0-4.75,0-7.12,0h-7a3.07,3.07,0,1,1,0-6.11q7.06,0,14.15,0a3.07,3.07,0,1,1,0,6.11ZM61.72,69.33c-2.62,0-5.24,0-7.85,0H17.48a3.22,3.22,0,0,1-3.25-2,3.08,3.08,0,0,1,2.64-4.14c.23,0,.47,0,.71,0H61.41a3.25,3.25,0,0,1,3.35,2A3.06,3.06,0,0,1,61.72,69.33Z"/><path class="cls-1" d="M78.52,24.47H55.82c-1.46,0-1.64-.18-1.64-1.63V1.32a6.76,6.76,0,0,1,2.28,1.5q10.07,9.51,20.12,19.05A10.09,10.09,0,0,1,78.52,24.47Z"/></g></g></svg>