<svg xmlns="http://www.w3.org/2000/svg" viewBox="0 0 54.8 72.47"><defs><style>.cls-1{fill:#fff;}</style></defs><title>Asset 5</title><g id="Layer_2" data-name="Layer 2"><g id="Layer_1-2" data-name="Layer 1"><path class="cls-1" d="M54.8,18.51a21.43,21.43,0,0,0-.12-2.4A8,8,0,0,0,48.11,9,22.47,22.47,0,0,0,44,8.85c-.84,0-1,.26-.87,1.12s.35,1.71.48,2.57a6.08,6.08,0,0,1-5.82,7q-10.48.09-20.95,0a5.92,5.92,0,0,1-5.79-5.88,20.76,20.76,0,0,1,.54-3.85c.13-.8,0-1-.82-1-1,0-2,0-3,0A8.06,8.06,0,0,0,0,17V64.58a7.61,7.61,0,0,0,.09,1.34,7.8,7.8,0,0,0,6.65,6.55h41a.43.43,0,0,1,.2-.07,6.48,6.48,0,0,0,4.8-2.5,8.87,8.87,0,0,0,2-6.24Zm-14,17.73A2.2,2.2,0,0,1,43,37.6a2.12,2.12,0,0,1-2,2.88c-1,0-2,0-3,0-4.19,0-8.39,0-12.59,0a2.13,2.13,0,0,1-2.36-2,2.11,2.11,0,0,1,2.28-2.23c2.57,0,5.14,0,7.71,0S38.18,36.23,40.78,36.24Zm-27,26.95a2.09,2.09,0,1,1,2.08-2.12A2.06,2.06,0,0,1,13.73,63.19Zm-.06-15.54a2.09,2.09,0,1,1-2,2.08A2.06,2.06,0,0,1,13.67,47.65Zm-2-9.28a2.09,2.09,0,1,1,4.18,0,2.09,2.09,0,1,1-4.18,0ZM14,29.1A2.13,2.13,0,0,1,11.88,26a2.06,2.06,0,0,1,1.93-1.09h7.85c2.68,0,5.37,0,8.06,0a2,2,0,0,1,2,1.76,2.05,2.05,0,0,1-1.28,2.26,2.82,2.82,0,0,1-1.11.16C24.21,29.09,19.12,29.07,14,29.1ZM24.19,47.84a1.79,1.79,0,0,1,.67-.17c5.45,0,10.9,0,16.34,0a2.07,2.07,0,0,1-.28,4.14H25.07a2.09,2.09,0,0,1-.88-4ZM41.82,63a3,3,0,0,1-1.18.17c-5.07,0-10.14,0-15.21,0a2.15,2.15,0,0,1-2.28-2.91,2,2,0,0,1,2-1.3h7.92c2.67,0,5.33,0,8,0a2.05,2.05,0,0,1,2,1.72A2.12,2.12,0,0,1,41.82,63Z"/><path class="cls-1" d="M27.38,15.64h-9.9A2.21,2.21,0,0,1,15,13.73a3.24,3.24,0,0,1,.12-1.12q1-5.32,2.12-10.64a2.23,2.23,0,0,1,2.43-2H35a2.16,2.16,0,0,1,2.43,2c.76,3.66,1.5,7.31,2.22,11a2.16,2.16,0,0,1-2.39,2.7C34,15.65,30.68,15.64,27.38,15.64Z"/></g></g></svg>