<svg xmlns="http://www.w3.org/2000/svg" viewBox="0 0 82.08 81.9"><defs><style>.cls-1{fill:#fff;}</style></defs><title>Asset 3</title><g id="Layer_2" data-name="Layer 2"><g id="Layer_1-2" data-name="Layer 1"><path class="cls-1" d="M82.08,9.73h-.16a1.21,1.21,0,0,1-.27-.9c0-1.59,0-3.18,0-4.78a1.14,1.14,0,0,1,.27-.88h.16Z"/><path class="cls-1" d="M14.91,81.9a.7.7,0,0,1,1,0Z"/><path class="cls-1" d="M80.62,14.27H18.34c-1.27,0-1.44.16-1.45,1.34V45c0,1.18.2,1.35,1.38,1.53a19.57,19.57,0,0,1,13.58,8.23,19.14,19.14,0,0,1,3.66,12.8c-.12,1.64.06,1.83,1.75,1.83H76.94a11,11,0,0,0,1.28,0,4,4,0,0,0,3.86-3.42V14.53A2.09,2.09,0,0,0,80.62,14.27ZM47.55,47a2.39,2.39,0,0,1-3.12-1.57c-.55-1.39-.55-1.39-2-1.39s-3.05,0-4.57,0c-.62,0-1,.09-1.13.77a2.83,2.83,0,0,1-.26.66A2.39,2.39,0,1,1,32,43.79l4.48-11.74c.46-1.22.92-2.44,1.39-3.65a2.77,2.77,0,0,1,5.28.1L47.46,40c.48,1.26,1,2.52,1.43,3.79A2.4,2.4,0,0,1,47.55,47Zm18.61-4.76a7.87,7.87,0,0,1-7.29,4.62H57.11V47c-.82,0-1.65,0-2.48,0a2.36,2.36,0,0,1-2.55-2.62q0-7.43,0-14.87a2.43,2.43,0,0,1,2.75-2.75,47.1,47.1,0,0,1,5,.09,7.68,7.68,0,0,1,6.46,4.7A12,12,0,0,1,66.16,42.28Z"/><path class="cls-1" d="M37.15,9.77c-6.41,0-12.83,0-19.24,0-.6,0-.81-.12-.79-.77.05-1.6,0-3.2,0-4.8A4,4,0,0,1,21.38,0h11.3C40.59,0,48.5,0,56.4,0c.67,0,.85.16.84.83,0,2.72,0,5.44,0,8.16,0,.61-.13.8-.77.79C50,9.76,43.59,9.77,37.15,9.77Z"/><path class="cls-1" d="M81.92,3.17V9.73l-7.44,0c-.36,0-.45-.11-.45-.45q0-4.4,0-8.79c0-.28,0-.53.4-.51a33.33,33.33,0,0,1,4.47.12A3.83,3.83,0,0,1,81.92,3.17Z"/><path class="cls-1" d="M62,4.87C62,3.43,62,2,62,.56c0-.41.1-.56.53-.56,2.05,0,4.11,0,6.16,0,.41,0,.56.1.56.53q0,4.37,0,8.71c0,.42-.12.54-.54.54-2,0-4.11,0-6.16,0-.48,0-.56-.18-.55-.6C62,7.74,62,6.31,62,4.87Z"/><path class="cls-1" d="M30.91,63.87A15.55,15.55,0,0,0,9.47,52,15,15,0,0,0,.14,64.28a.93.93,0,0,1-.14.81v2.4a1,1,0,0,1,.14.83A15.25,15.25,0,0,0,9.5,80.6a13.82,13.82,0,0,0,4.29,1.13c.13,0,.28,0,.32.17h.8a1.23,1.23,0,0,1,1,0h.64a4.19,4.19,0,0,1,1.68-.29A15.59,15.59,0,0,0,30.91,63.87ZM18.49,75.27a1.11,1.11,0,0,0-.71,1.06,2.35,2.35,0,0,1-4.63.2.89.89,0,0,0-.74-.85,7.11,7.11,0,0,1-2.15-1,2.38,2.38,0,0,1,2.45-4.07,4.45,4.45,0,0,0,2.64.74,1.82,1.82,0,0,0,1.59-.91,1.22,1.22,0,0,0-.67-1.94,28.64,28.64,0,0,1-3.86-1.67,5.09,5.09,0,0,1-2.65-3.24,5.64,5.64,0,0,1,2.68-6.35,1.16,1.16,0,0,0,.68-1,2.35,2.35,0,0,1,4.65-.07.82.82,0,0,0,.61.78,6.81,6.81,0,0,1,1.32.73,2.25,2.25,0,0,1,1,2,2.35,2.35,0,0,1-3.62,2,2.57,2.57,0,0,0-2-.4.92.92,0,0,0-.68.79c-.09.39.23.5.47.64a18.48,18.48,0,0,0,2.93,1.26,5.69,5.69,0,0,1,4.17,5.29A6.19,6.19,0,0,1,18.49,75.27Z"/><path class="cls-1" d="M56.78,36.78c0-1.57,0-3.14,0-4.71,0-.45.12-.64.58-.57.1,0,.21,0,.32,0,3.32,0,4.39.91,4.92,4.2a7.41,7.41,0,0,1-.36,3.76,3.76,3.76,0,0,1-3.86,2.73c-1.57,0-1.57,0-1.58-1.58V36.78Z"/><path class="cls-1" d="M38.79,39.32,40.45,35c.55,1.41,1,2.68,1.52,3.95.11.3,0,.42-.32.42C40.75,39.31,39.84,39.32,38.79,39.32Z"/></g></g></svg>