<svg width="129" height="129" viewBox="0 0 129 129" fill="none" xmlns="http://www.w3.org/2000/svg">
<path d="M101.31 88.4101C101.558 88.1617 101.853 87.9646 102.177 87.8301C102.501 87.6956 102.849 87.6264 103.2 87.6264C103.551 87.6264 103.899 87.6956 104.223 87.8301C104.547 87.9646 104.842 88.1617 105.09 88.4101C107.332 90.6524 110.205 92.1571 113.325 92.723C116.445 93.2889 119.663 92.8891 122.55 91.5771V116.1C124.261 116.1 125.901 116.78 127.111 117.989C128.32 119.199 129 120.839 129 122.55C129 124.261 128.32 125.901 127.111 127.111C125.901 128.32 124.261 129 122.55 129H6.45C4.73935 129 3.09877 128.32 1.88916 127.111C0.679551 125.901 0 124.261 0 122.55C0 120.839 0.679551 119.199 1.88916 117.989C3.09877 116.78 4.73935 116.1 6.45 116.1V91.5771C12.1905 94.1893 19.1887 93.1315 23.9101 88.4166C24.1582 88.1681 24.4528 87.971 24.777 87.8365C25.1013 87.702 25.4489 87.6328 25.8 87.6328C26.1511 87.6328 26.4987 87.702 26.823 87.8365C27.1472 87.971 27.4418 88.1681 27.6898 88.4166C29.1357 89.8625 30.8522 91.0095 32.7413 91.792C34.6304 92.5746 36.6552 92.9773 38.7 92.9773C40.7448 92.9773 42.7696 92.5746 44.6587 91.792C46.5478 91.0095 48.2643 89.8625 49.7101 88.4166C49.9582 88.1681 50.2527 87.971 50.577 87.8365C50.9013 87.702 51.2489 87.6328 51.6 87.6328C51.9511 87.6328 52.2987 87.702 52.623 87.8365C52.9473 87.971 53.2418 88.1681 53.4898 88.4166C54.9357 89.8625 56.6522 91.0095 58.5413 91.792C60.4304 92.5746 62.4552 92.9773 64.5 92.9773C66.5448 92.9773 68.5696 92.5746 70.4587 91.792C72.3478 91.0095 74.0643 89.8625 75.5101 88.4166C75.7582 88.1681 76.0527 87.971 76.377 87.8365C76.7013 87.702 77.0489 87.6328 77.4 87.6328C77.7511 87.6328 78.0987 87.702 78.423 87.8365C78.7472 87.971 79.0418 88.1681 79.2898 88.4166C80.7357 89.8625 82.4522 91.0095 84.3413 91.792C86.2304 92.5746 88.2552 92.9773 90.3 92.9773C92.3448 92.9773 94.3695 92.5746 96.2587 91.792C98.1478 91.0095 99.8643 89.8625 101.31 88.4166V88.4101ZM90.3 25.8C92.0106 25.8 93.6512 26.4796 94.8608 27.6892C96.0704 28.8988 96.75 30.5394 96.75 32.25V45.15H103.2C108.332 45.15 113.254 47.1887 116.883 50.8175C120.511 54.4463 122.55 59.3681 122.55 64.5V74.7297L117.99 79.2898C117.742 79.5383 117.447 79.7354 117.123 79.8699C116.799 80.0044 116.451 80.0736 116.1 80.0736C115.749 80.0736 115.401 80.0044 115.077 79.8699C114.753 79.7354 114.458 79.5383 114.21 79.2898C112.764 77.8439 111.048 76.697 109.159 75.9144C107.27 75.1319 105.245 74.7291 103.2 74.7291C101.155 74.7291 99.1304 75.1319 97.2413 75.9144C95.3522 76.697 93.6357 77.8439 92.1898 79.2898C91.9418 79.5383 91.6472 79.7354 91.323 79.8699C90.9987 80.0044 90.6511 80.0736 90.3 80.0736C89.9489 80.0736 89.6013 80.0044 89.277 79.8699C88.9527 79.7354 88.6582 79.5383 88.4101 79.2898C86.9643 77.8439 85.2478 76.697 83.3587 75.9144C81.4696 75.1319 79.4448 74.7291 77.4 74.7291C75.3552 74.7291 73.3304 75.1319 71.4413 75.9144C69.5522 76.697 67.8357 77.8439 66.3898 79.2898C66.1418 79.5383 65.8473 79.7354 65.523 79.8699C65.1987 80.0044 64.8511 80.0736 64.5 80.0736C64.1489 80.0736 63.8013 80.0044 63.477 79.8699C63.1527 79.7354 62.8582 79.5383 62.6101 79.2898C61.1643 77.8439 59.4478 76.697 57.5587 75.9144C55.6696 75.1319 53.6448 74.7291 51.6 74.7291C49.5552 74.7291 47.5304 75.1319 45.6413 75.9144C43.7522 76.697 42.0357 77.8439 40.5899 79.2898C40.3418 79.5383 40.0472 79.7354 39.723 79.8699C39.3987 80.0044 39.0511 80.0736 38.7 80.0736C38.3489 80.0736 38.0013 80.0044 37.677 79.8699C37.3527 79.7354 37.0582 79.5383 36.8101 79.2898C35.3643 77.8439 33.6478 76.697 31.7587 75.9144C29.8696 75.1319 27.8448 74.7291 25.8 74.7291C23.7552 74.7291 21.7304 75.1319 19.8413 75.9144C17.9522 76.697 16.2357 77.8439 14.7899 79.2898C14.5418 79.5383 14.2472 79.7354 13.923 79.8699C13.5987 80.0044 13.2511 80.0736 12.9 80.0736C12.5489 80.0736 12.2013 80.0044 11.877 79.8699C11.5528 79.7354 11.2582 79.5383 11.0101 79.2898L6.45 74.7297V64.5C6.45 59.3681 8.48866 54.4463 12.1175 50.8175C15.7463 47.1887 20.6681 45.15 25.8 45.15H32.25V32.25C32.25 30.5394 32.9296 28.8988 34.1392 27.6892C35.3488 26.4796 36.9894 25.8 38.7 25.8C40.4106 25.8 42.0512 26.4796 43.2608 27.6892C44.4704 28.8988 45.15 30.5394 45.15 32.25V45.15H58.05V32.25C58.05 30.5394 58.7295 28.8988 59.9392 27.6892C61.1488 26.4796 62.7894 25.8 64.5 25.8C66.2106 25.8 67.8512 26.4796 69.0608 27.6892C70.2704 28.8988 70.95 30.5394 70.95 32.25V45.15H83.85V32.25C83.85 30.5394 84.5295 28.8988 85.7392 27.6892C86.9488 26.4796 88.5893 25.8 90.3 25.8ZM67.725 0C65.6674 4.1151 67.5444 6.7725 69.1762 9.0945C70.105 10.4039 70.95 11.61 70.95 12.9C70.95 14.6106 70.2704 16.2512 69.0608 17.4608C67.8512 18.6704 66.2106 19.35 64.5 19.35C62.7894 19.35 61.1488 18.6704 59.9392 17.4608C58.7295 16.2512 58.05 14.6106 58.05 12.9C58.05 9.3396 61.275 3.225 67.725 0ZM41.925 0C39.8674 4.1151 41.7444 6.7725 43.3763 9.0945C44.305 10.4039 45.15 11.61 45.15 12.9C45.15 14.6106 44.4704 16.2512 43.2608 17.4608C42.0512 18.6704 40.4106 19.35 38.7 19.35C36.9894 19.35 35.3488 18.6704 34.1392 17.4608C32.9296 16.2512 32.25 14.6106 32.25 12.9C32.25 9.3396 35.475 3.225 41.925 0ZM93.525 0C91.4674 4.1151 93.3444 6.7725 94.9762 9.0945C95.9051 10.4039 96.75 11.61 96.75 12.9C96.75 14.6106 96.0704 16.2512 94.8608 17.4608C93.6512 18.6704 92.0106 19.35 90.3 19.35C88.5893 19.35 86.9488 18.6704 85.7392 17.4608C84.5295 16.2512 83.85 14.6106 83.85 12.9C83.85 9.3396 87.075 3.225 93.525 0Z" fill="#F8F8F8"/>
</svg>
