<svg width="142" height="139" viewBox="0 0 142 139" fill="none" xmlns="http://www.w3.org/2000/svg">
<path d="M77.4545 42.4633V68.2064H122.636C124.348 68.2064 125.99 68.8845 127.2 70.0914C128.411 71.2983 129.091 72.9353 129.091 74.6422V126.128H142V139H0V126.128H12.9091V74.6422C12.9091 72.9353 13.5891 71.2983 14.7996 70.0914C16.01 68.8845 17.6518 68.2064 19.3636 68.2064H64.5455V42.4633H77.4545ZM82.8118 0C85.3795 4.43449 86.0753 9.70437 84.7462 14.6504C83.4171 19.5964 80.172 23.8134 75.7247 26.3738L64.5455 32.8096C61.9778 28.3751 61.282 23.1052 62.611 18.1592C63.9401 13.2132 67.1852 8.99617 71.6325 6.43578L82.8118 0Z" fill="#F8F8F8"/>
</svg>
