<svg xmlns="http://www.w3.org/2000/svg" viewBox="0 0 55.04 55.1"><defs><style>.cls-1{fill:#fff;}</style></defs><title>Asset 8</title><g id="Layer_2" data-name="Layer 2"><g id="Layer_1-2" data-name="Layer 1"><path class="cls-1" d="M8.61,10H47.09a5.07,5.07,0,0,1,5.16,3.5,5.4,5.4,0,0,1,.24,1.73q0,3.81,0,7.61a2.51,2.51,0,1,1-5-.08c0-2.4,0-4.8,0-7.2,0-.4-.1-.52-.51-.52H9.12l-.43,0,.48.51c1.68,1.69,3.38,3.36,5.05,5.06a2.52,2.52,0,0,1-.16,3.85,2.48,2.48,0,0,1-3.39-.28l-5.3-5.3L.86,14.41a2.48,2.48,0,0,1,0-3.77L10.68.83A2.44,2.44,0,0,1,13.35.15,2.4,2.4,0,0,1,15,2.27a2.55,2.55,0,0,1-.88,2.2c-1.69,1.67-3.37,3.36-5.05,5Z"/><path class="cls-1" d="M46.31,40c0-.27-.23-.36-.35-.49-1.74-1.74-3.49-3.47-5.21-5.22a2.5,2.5,0,0,1,1.19-4.26,2.27,2.27,0,0,1,2.22.6C47.56,34,51,37.43,54.34,40.84a2.37,2.37,0,0,1,0,3.38q-5.07,5.12-10.18,10.19a2.5,2.5,0,0,1-3.47-3.61c1.74-1.76,3.5-3.51,5.25-5.26l.43-.44a.94.94,0,0,0-.63-.08H8a5.11,5.11,0,0,1-5.19-3.47A4.78,4.78,0,0,1,2.52,40q0-3.69,0-7.38A2.39,2.39,0,0,1,4,30.29a2.4,2.4,0,0,1,2.59.31,2.5,2.5,0,0,1,1,2.15v4.57c0,.76,0,1.52,0,2.28,0,.34.11.47.44.42a1,1,0,0,1,.17,0H46.31Z"/></g></g></svg>