<svg xmlns="http://www.w3.org/2000/svg" viewBox="0 0 59.74 95.75"><defs><style>.cls-1{fill:#fff;}</style></defs><title>Asset 7</title><g id="Layer_2" data-name="Layer 2"><g id="Layer_1-2" data-name="Layer 1"><path class="cls-1" d="M14.6,59.9H2.3c-2,0-2.88-1.53-1.91-3.23Q16.17,29,32,1.35A2.07,2.07,0,0,1,34.48.1a2,2,0,0,1,1.39,2.44c-.36,3.1-.79,6.2-1.2,9.29q-.89,6.82-1.79,13.65c-.42,3.16-.81,6.32-1.27,9.47-.11.74,0,.93.81.93,8.29,0,16.58,0,24.87,0,2.17,0,3.07,1.48,2,3.36Q43.84,66.79,28.35,94.35c-.67,1.19-1.58,1.63-2.59,1.28s-1.49-1.17-1.35-2.55q1.15-11.37,2.32-22.74c.33-3.27.67-6.53,1.07-9.79.08-.71-.25-.66-.72-.66Z"/></g></g></svg>