<svg xmlns="http://www.w3.org/2000/svg" viewBox="0 0 67.1 86.42"><title>coffe cup</title><g id="Layer_2" data-name="Layer 2"><g id="Layer_1-2" data-name="Layer 1"><path d="M67,43c-2.14-6.77.76-15.83-8.53-19.48-1-.4-1-1.58-1.39-2.48A27.2,27.2,0,0,0,47.32,8.29C46.25,7.56,45,7,46,5.26c1.66-2.75-.1-3.64-2.39-4.39s-4.33-2.13-5,1.56c-.28,1.44-1.06,1.6-2.5,1.41C25.2,2.37,17.37,7.25,11.82,16.2,9.56,19.84,8.74,24.42,4.2,26.41c-.71.3-1.18,1.58-1.39,2.5-1,4.32-2,8.65-2.72,13-.47,2.69.9,4.85,3.61,4.77,3.11-.09,3.32,1.56,3.64,3.81,1.36,9.43,2.72,18.87,4.28,28.27.9,5.48,3.51,7.53,9.09,7.61,4.28.06,8.55,0,12.83,0s8.55,0,12.83,0c5.6-.08,8.22-2.12,9.12-7.57,1.49-9.08,2.7-18.21,4.12-27.3.37-2.42.14-5.3,4.27-4.88A3,3,0,0,0,67,43ZM42.71,14.64a16.88,16.88,0,0,1,6.57,8.18H39.72A29.32,29.32,0,0,1,42.71,14.64ZM31.92,11.29c2.51-.14,3.37.57,2.29,3a4.64,4.64,0,0,0-.23.44c-3.09,9.34-3.5,9.54-16.28,8.05C19.87,16.35,25.8,11.65,31.92,11.29ZM26.7,68.13l-7.32-6.8L26.18,54l7.31,6.8Zm20.68,8.11h-10v-10h10ZM9,38.75C10,31,10,31,17.29,31H49.83c7.28,0,7.28,0,8.3,7.71Z"/></g></g></svg>