<svg width="85" height="86" viewBox="0 0 85 86" fill="none" xmlns="http://www.w3.org/2000/svg">
<path fill-rule="evenodd" clip-rule="evenodd" d="M78.5361 43C78.5361 24.6684 64.251 6.46617 42.0152 6.46617C24.0586 6.46617 15.1837 19.7606 11.3958 26.8346H22.6236C23.4807 26.8346 24.3028 27.1752 24.9089 27.7815C25.515 28.3879 25.8555 29.2102 25.8555 30.0677C25.8555 30.9251 25.515 31.7475 24.9089 32.3538C24.3028 32.9601 23.4807 33.3008 22.6236 33.3008H3.23194C2.37478 33.3008 1.55272 32.9601 0.946613 32.3538C0.340507 31.7475 0 30.9251 0 30.0677V10.6692C0 9.81171 0.340507 8.98936 0.946613 8.38304C1.55272 7.77672 2.37478 7.43609 3.23194 7.43609C4.0891 7.43609 4.91116 7.77672 5.51727 8.38304C6.12337 8.98936 6.46388 9.81171 6.46388 10.6692V22.3923C11.0209 14.3614 21.5506 0 42.0152 0C68.278 0 85 21.5647 85 43C85 64.4353 68.278 86 42.0152 86C29.4494 86 18.9909 81.0211 11.538 73.4427C7.58929 69.4104 4.45716 64.6523 2.31407 59.4305C2.15279 59.0378 2.07041 58.6171 2.07165 58.1926C2.07288 57.768 2.1577 57.3478 2.32126 56.956C2.48482 56.5642 2.72392 56.2085 3.02491 55.9092C3.3259 55.6098 3.68288 55.3727 4.07548 55.2114C4.46807 55.05 4.88858 54.9676 5.31301 54.9688C5.73744 54.9701 6.15747 55.0549 6.54912 55.2186C6.94076 55.3822 7.29636 55.6214 7.5956 55.9225C7.89485 56.2235 8.13188 56.5807 8.29316 56.9734C10.103 61.3768 12.7662 65.4699 16.1532 68.9099C22.4361 75.3114 31.2529 79.5338 42.0152 79.5338C64.251 79.5338 78.5361 61.3316 78.5361 43ZM38.7833 59.1654V26.8346H45.2472V59.1654H38.7833Z" fill="#F8F8F8"/>
</svg>
