<svg width="224" height="208" viewBox="0 0 224 208" fill="none" xmlns="http://www.w3.org/2000/svg">
<path d="M56 40V8C56 5.87827 56.8429 3.84344 58.3431 2.34315C59.8434 0.842854 61.8783 0 64 0C66.1217 0 68.1566 0.842854 69.6569 2.34315C71.1571 3.84344 72 5.87827 72 8V40C72 42.1217 71.1571 44.1566 69.6569 45.6569C68.1566 47.1571 66.1217 48 64 48C61.8783 48 59.8434 47.1571 58.3431 45.6569C56.8429 44.1566 56 42.1217 56 40ZM96 48C98.1217 48 100.157 47.1571 101.657 45.6569C103.157 44.1566 104 42.1217 104 40V8C104 5.87827 103.157 3.84344 101.657 2.34315C100.157 0.842854 98.1217 0 96 0C93.8783 0 91.8434 0.842854 90.3431 2.34315C88.8429 3.84344 88 5.87827 88 8V40C88 42.1217 88.8429 44.1566 90.3431 45.6569C91.8434 47.1571 93.8783 48 96 48ZM128 48C130.122 48 132.157 47.1571 133.657 45.6569C135.157 44.1566 136 42.1217 136 40V8C136 5.87827 135.157 3.84344 133.657 2.34315C132.157 0.842854 130.122 0 128 0C125.878 0 123.843 0.842854 122.343 2.34315C120.843 3.84344 120 5.87827 120 8V40C120 42.1217 120.843 44.1566 122.343 45.6569C123.843 47.1571 125.878 48 128 48ZM224 104V112C223.994 122.172 220.114 131.96 213.147 139.372C206.181 146.785 196.652 151.264 186.5 151.9C180.99 167.312 171.707 181.098 159.5 192H184C186.122 192 188.157 192.843 189.657 194.343C191.157 195.843 192 197.878 192 200C192 202.122 191.157 204.157 189.657 205.657C188.157 207.157 186.122 208 184 208H8C5.87827 208 3.84344 207.157 2.34315 205.657C0.842854 204.157 0 202.122 0 200C0 197.878 0.842854 195.843 2.34315 194.343C3.84344 192.843 5.87827 192 8 192H32.5C22.3053 182.975 14.1381 171.892 8.53633 159.482C2.93455 147.072 0.0252464 133.616 0 120V72C0 69.8783 0.842854 67.8434 2.34315 66.3431C3.84344 64.8429 5.87827 64 8 64H184C194.609 64 204.783 68.2143 212.284 75.7157C219.786 83.2172 224 93.3913 224 104ZM208 104C207.994 99.0416 206.453 94.2067 203.588 90.1598C200.723 86.1129 196.675 83.0528 192 81.4V120C192.006 125.024 191.605 130.041 190.8 135C195.764 133.534 200.12 130.502 203.22 126.357C206.32 122.212 207.996 117.176 208 112V104Z" fill="#F8F8F8"/>
</svg>
