<svg width="93" height="104" viewBox="0 0 93 104" fill="none" xmlns="http://www.w3.org/2000/svg">
<path d="M11.0314 10.4L13.5181 33.15C17.968 30.81 22.5715 29.0333 27.3286 27.82C32.0822 26.6067 36.9457 26 41.9192 26C44.5368 26 47.1335 26.1733 49.7092 26.52C52.2814 26.8667 54.8327 27.3867 57.3631 28.08C61.7258 29.2933 65.0641 30.1167 67.3781 30.55C69.6886 30.9833 72.1526 31.2 74.7702 31.2H79.6128L81.8378 10.4H11.0314ZM20.3239 104C17.619 104 15.2632 103.133 13.2563 101.4C11.2495 99.6667 10.1152 97.4567 9.85344 94.77L0.0373945 5.72C-0.137113 4.16 0.299156 2.81667 1.3462 1.69C2.39325 0.563334 3.70205 0 5.27262 0H87.7274C89.298 0 90.6068 0.563334 91.6538 1.69C92.7008 2.81667 93.1371 4.16 92.9626 5.72L83.1466 94.77C82.8848 97.4567 81.7505 99.6667 79.7437 101.4C77.7368 103.133 75.381 104 72.6761 104H20.3239Z" fill="#F8F8F8"/>
</svg>
