<svg width="105" height="104" viewBox="0 0 105 104" fill="none" xmlns="http://www.w3.org/2000/svg">
<path d="M36.75 104C33.8625 104 31.3915 102.983 29.337 100.948C27.279 98.9092 26.25 96.46 26.25 93.6V78H10.5C7.6125 78 5.1415 76.9825 3.087 74.9476C1.029 72.9092 0 70.46 0 67.6V36.4C0 33.54 1.029 31.0908 3.087 29.0524C5.1415 27.0175 7.6125 26 10.5 26H26.25V10.4C26.25 7.54 27.279 5.0908 29.337 3.0524C31.3915 1.01747 33.8625 0 36.75 0H68.25C71.1375 0 73.6103 1.01747 75.6683 3.0524C77.7228 5.0908 78.75 7.54 78.75 10.4V26H94.5C97.3875 26 99.8603 27.0175 101.918 29.0524C103.973 31.0908 105 33.54 105 36.4V67.6C105 70.46 103.973 72.9092 101.918 74.9476C99.8603 76.9825 97.3875 78 94.5 78H78.75V93.6C78.75 96.46 77.7228 98.9092 75.6683 100.948C73.6103 102.983 71.1375 104 68.25 104H36.75ZM10.5 46.8H36.75C37.625 46.8 38.4563 47.0167 39.2438 47.45C40.0313 47.8833 40.6437 48.4467 41.0812 49.14L45.675 55.9L52.7625 34.84C53.1125 33.8 53.7478 32.9333 54.6683 32.24C55.5853 31.5467 56.6125 31.2 57.75 31.2C58.625 31.2 59.4563 31.4167 60.2438 31.85C61.0313 32.2833 61.6437 32.8467 62.0812 33.54L71.0062 46.8H94.5V36.4H73.5C72.0125 36.4 70.7665 35.9008 69.762 34.9024C68.754 33.9075 68.25 32.6733 68.25 31.2V10.4H36.75V31.2C36.75 32.6733 36.2478 33.9075 35.2433 34.9024C34.2353 35.9008 32.9875 36.4 31.5 36.4H10.5V46.8ZM10.5 57.2V67.6H31.5C32.9875 67.6 34.2353 68.0975 35.2433 69.0924C36.2478 70.0908 36.75 71.3267 36.75 72.8V93.6H68.25V72.8C68.25 71.3267 68.754 70.0908 69.762 69.0924C70.7665 68.0975 72.0125 67.6 73.5 67.6H94.5V57.2H68.25C67.375 57.2 66.5437 56.9833 65.7562 56.55C64.9687 56.1167 64.3125 55.5533 63.7875 54.86L59.325 48.1L52.2375 69.16C51.8875 70.2 51.2312 71.0667 50.2687 71.76C49.3062 72.4533 48.2563 72.8 47.1188 72.8C46.2438 72.8 45.4125 72.5833 44.625 72.15C43.8375 71.7167 43.225 71.1533 42.7875 70.46L33.8625 57.2H10.5ZM0 57.2H10.5V67.6H31.5C32.9875 67.6 34.2353 68.0975 35.2433 69.0924C36.2478 70.0908 36.75 71.3267 36.75 72.8V93.6H68.25V72.8C68.25 71.3267 68.754 70.0908 69.762 69.0924C70.7665 68.0975 72.0125 67.6 73.5 67.6H94.5V57.2H105V46.8H94.5V36.4H73.5C72.0125 36.4 70.7665 35.9008 69.762 34.9024C68.754 33.9075 68.25 32.6733 68.25 31.2V10.4H36.75V31.2C36.75 32.6733 36.2478 33.9075 35.2433 34.9024C34.2353 35.9008 32.9875 36.4 31.5 36.4H10.5V46.8H0V57.2Z" fill="#F8F8F8"/>
</svg>
