<svg width="88" height="115" viewBox="0 0 88 115" fill="none" xmlns="http://www.w3.org/2000/svg">
<path fill-rule="evenodd" clip-rule="evenodd" d="M17.6 8.84589C17.6 6.49982 18.5271 4.24983 20.1775 2.5909C21.8278 0.931976 24.0661 0 26.4 0H49.8667C52.2006 0 54.4389 0.931976 56.0892 2.5909C57.7395 4.24983 58.6667 6.49982 58.6667 8.84589H67.4667C69.8006 8.84589 72.0389 9.77787 73.6892 11.4368C75.3395 13.0957 76.2667 15.3457 76.2667 17.6918V61.9213H70.4V17.6918C70.4 16.9098 70.091 16.1598 69.5409 15.6068C68.9907 15.0538 68.2446 14.7432 67.4667 14.7432H58.6667C58.6667 17.0892 57.7395 19.3392 56.0892 20.9981C54.4389 22.6571 52.2006 23.589 49.8667 23.589H26.4C24.0661 23.589 21.8278 22.6571 20.1775 20.9981C18.5271 19.3392 17.6 17.0892 17.6 14.7432H8.8C8.02203 14.7432 7.27593 15.0538 6.72582 15.6068C6.17571 16.1598 5.86667 16.9098 5.86667 17.6918V100.253C5.86667 101.035 6.17571 101.785 6.72582 102.338C7.27593 102.891 8.02203 103.202 8.8 103.202H44V109.099H8.8C6.4661 109.099 4.22778 108.167 2.57746 106.508C0.927139 104.85 0 102.6 0 100.253V17.6918C0 15.3457 0.927139 13.0957 2.57746 11.4368C4.22778 9.77787 6.4661 8.84589 8.8 8.84589H17.6ZM26.4 5.89726C25.622 5.89726 24.8759 6.20792 24.3258 6.7609C23.7757 7.31387 23.4667 8.06387 23.4667 8.84589V14.7432C23.4667 15.5252 23.7757 16.2752 24.3258 16.8282C24.8759 17.3811 25.622 17.6918 26.4 17.6918H49.8667C50.6446 17.6918 51.3907 17.3811 51.9408 16.8282C52.491 16.2752 52.8 15.5252 52.8 14.7432V8.84589C52.8 8.06387 52.491 7.31387 51.9408 6.7609C51.3907 6.20792 50.6446 5.89726 49.8667 5.89726H26.4ZM35.2 35.3836V44.2295H26.4V50.1267H35.2V58.9726H41.0667V50.1267H49.8667V44.2295H41.0667V35.3836H35.2ZM49.8667 67.8185C49.0887 67.8185 48.3426 68.1292 47.7925 68.6821C47.2424 69.2351 46.9333 69.9851 46.9333 70.7671V90.7854C46.9335 94.1832 47.7681 97.5284 49.3631 100.524C50.9581 103.52 53.2641 106.073 56.0765 107.958L65.8387 114.504C66.3207 114.827 66.8872 115 67.4667 115C68.0461 115 68.6126 114.827 69.0947 114.504L78.8568 107.958C81.6688 106.074 83.9746 103.521 85.5696 100.525C87.1646 97.5303 87.9994 94.1856 88 90.7884V70.7671C88 69.9851 87.691 69.2351 87.1409 68.6821C86.5907 68.1292 85.8446 67.8185 85.0667 67.8185H49.8667ZM78.3405 84.6464L66.6072 96.4409C66.0571 96.9937 65.3111 97.3042 64.5333 97.3042C63.7555 97.3042 63.0095 96.9937 62.4595 96.4409L56.5928 90.5436L60.7405 86.3742L64.5333 90.1868L74.1928 80.477L78.3405 84.6464Z" fill="#F8F8F8"/>
</svg>
