<svg xmlns="http://www.w3.org/2000/svg" viewBox="0 0 109.54 125.32"><defs><style>.cls-1{fill:#fff;}</style></defs><title>Asset 2</title><g id="Layer_2" data-name="Layer 2"><g id="Layer_1-2" data-name="Layer 1"><path class="cls-1" d="M44.55,125.32c-2.56-.85-4.42-2.65-6.26-4.51q-9.28-9.32-18.6-18.6A12.34,12.34,0,0,1,15.88,95a11.49,11.49,0,0,1,3.45-10.12C26.15,78,33,71.14,39.91,64.29a9,9,0,0,1,4.78-2.8,5.86,5.86,0,0,1,6.86,4.79,17.93,17.93,0,0,1,.35,3.51c.06,1.59,0,3.18,0,4.77,0,.63.15,1,.84,1.07Q78.4,79.25,97.28,61.47a77.44,77.44,0,0,0,5.42-6.14c1.86-2.19,4.67-2.4,6.09-.26a4.54,4.54,0,0,1,.72,2.85A60.61,60.61,0,0,1,94.19,91.37a60.79,60.79,0,0,1-31.88,18.87c-3.35.79-6.8,1.17-10.4,1.77,0,1.45.05,3,0,4.6a22.13,22.13,0,0,1-.41,4,6.39,6.39,0,0,1-4.5,4.72Z"/><path class="cls-1" d="M57.77,13.38c0-2.38-.08-4.74,0-7.1A6.41,6.41,0,0,1,62.52.15,6.85,6.85,0,0,1,68.61,2C69.84,3.05,71,4.23,72.14,5.38L90,23.19a12.12,12.12,0,0,1,3.81,7.7,11.21,11.21,0,0,1-3.24,9.25Q79.64,51.12,68.59,62a6.24,6.24,0,0,1-6.65,1.66c-2.7-.94-3.9-3.14-4.14-5.81-.2-2.31-.15-4.64-.17-7,0-.66-.13-1-.89-1.15A52,52,0,0,0,7,69.87C5.39,72,3.41,72.37,1.56,71.08A3.7,3.7,0,0,1,.05,67.32a61.95,61.95,0,0,1,31.4-46.14,58.92,58.92,0,0,1,18.88-6.7C52.69,14.07,55.07,13.78,57.77,13.38Z"/></g></g></svg>