<svg width="17" height="20" viewBox="0 0 17 20" fill="none" xmlns="http://www.w3.org/2000/svg">
<path d="M8.99991 4.0001C11.0999 4.0001 13.0999 4.8001 14.5999 6.3001C17.6999 9.4001 17.6999 14.5001 14.5999 17.6001C12.7999 19.5001 10.2999 20.2001 7.89991 19.9001L8.39991 17.9001C10.0999 18.1001 11.8999 17.5001 13.1999 16.2001C15.4999 13.9001 15.4999 10.1001 13.1999 7.7001C12.0999 6.6001 10.4999 6.0001 8.99991 6.0001V10.6001L3.99991 5.6001L8.99991 0.600098V4.0001ZM3.29991 17.6001C0.699907 15.0001 0.299907 11.0001 2.09991 7.9001L3.59991 9.4001C2.49991 11.6001 2.89991 14.4001 4.79991 16.2001C5.29991 16.7001 5.89991 17.1001 6.59991 17.4001L5.99991 19.4001C4.99991 19.0001 4.09991 18.4001 3.29991 17.6001Z" fill="#F8F8F8"/>
</svg>
