<svg width="23" height="25" viewBox="0 0 23 25" fill="none" xmlns="http://www.w3.org/2000/svg">
<path d="M11.5044 9.09624C10.6929 9.09624 9.93301 9.42036 9.35764 10.0127C8.78498 10.6051 8.46745 11.3874 8.46745 12.2229C8.46745 13.0583 8.78498 13.8406 9.35764 14.433C9.93301 15.0226 10.6929 15.3495 11.5044 15.3495C12.3159 15.3495 13.0758 15.0226 13.6512 14.433C14.2238 13.8406 14.5414 13.0583 14.5414 12.2229C14.5414 11.3874 14.2238 10.6051 13.6512 10.0127C13.3702 9.72116 13.0357 9.49001 12.6671 9.33268C12.2986 9.17535 11.9034 9.09498 11.5044 9.09624ZM22.6942 15.6764L20.9193 14.1145C21.0034 13.5836 21.0468 13.0415 21.0468 12.5023C21.0468 11.963 21.0034 11.4181 20.9193 10.8901L22.6942 9.32815C22.8283 9.20998 22.9243 9.05258 22.9694 8.8769C23.0145 8.70121 23.0065 8.51556 22.9466 8.34462L22.9222 8.27198C22.4337 6.86567 21.7018 5.56212 20.7619 4.42448L20.713 4.3658C20.5989 4.22764 20.4468 4.12832 20.2767 4.08094C20.1067 4.03355 19.9267 4.04033 19.7604 4.10036L17.5566 4.90786C16.7424 4.22051 15.836 3.67845 14.8535 3.30125L14.4274 0.929043C14.3952 0.750338 14.311 0.585933 14.186 0.45767C14.0609 0.329407 13.9009 0.243358 13.7272 0.210956L13.6539 0.196985C12.2426 -0.0656617 10.7553 -0.0656617 9.34407 0.196985L9.27079 0.210956C9.09709 0.243358 8.93707 0.329407 8.812 0.45767C8.68693 0.585933 8.60273 0.750338 8.57058 0.929043L8.14177 3.31242C7.1686 3.69263 6.26203 4.23338 5.45762 4.91345L3.23756 4.10036C3.07137 4.03985 2.89123 4.03283 2.72108 4.08024C2.55092 4.12766 2.39881 4.22726 2.28495 4.3658L2.2361 4.42448C1.29785 5.56333 0.566093 6.86656 0.0757508 8.27198L0.0513247 8.34462C-0.0708054 8.69389 0.0296128 9.08506 0.303727 9.32815L2.1004 10.9068C2.01626 11.4321 1.97555 11.9686 1.97555 12.4995C1.97555 13.0359 2.01626 13.5724 2.1004 14.0921L0.309155 15.6708C0.175072 15.789 0.0791064 15.9464 0.0340201 16.122C-0.0110661 16.2977 -0.00313728 16.4834 0.0567526 16.6543L0.0811787 16.727C0.572413 18.1324 1.29705 19.4317 2.24152 20.5745L2.29038 20.6331C2.40451 20.7713 2.55663 20.8706 2.72669 20.918C2.89674 20.9654 3.07675 20.9586 3.24299 20.8986L5.46305 20.0855C6.27182 20.77 7.17287 21.3121 8.14719 21.6865L8.57601 24.0699C8.60815 24.2486 8.69236 24.413 8.81743 24.5413C8.9425 24.6695 9.10251 24.7556 9.27622 24.788L9.3495 24.802C10.7747 25.066 12.2342 25.066 13.6593 24.802L13.7326 24.788C13.9063 24.7556 14.0663 24.6695 14.1914 24.5413C14.3165 24.413 14.4007 24.2486 14.4328 24.0699L14.8589 21.6977C15.8414 21.3177 16.7479 20.7784 17.5621 20.0911L19.7658 20.8986C19.932 20.9591 20.1122 20.9661 20.2823 20.9187C20.4525 20.8713 20.6046 20.7717 20.7185 20.6331L20.7673 20.5745C21.7118 19.4261 22.4364 18.1324 22.9277 16.727L22.9521 16.6543C23.0688 16.3078 22.9684 15.9195 22.6942 15.6764ZM11.5044 17.1349C8.86912 17.1349 6.7332 14.9359 6.7332 12.2229C6.7332 9.50977 8.86912 7.3108 11.5044 7.3108C14.1397 7.3108 16.2756 9.50977 16.2756 12.2229C16.2756 14.9359 14.1397 17.1349 11.5044 17.1349Z" fill="#F8F8F8"/>
</svg>
