<svg width="18" height="17" viewBox="0 0 18 17" fill="none" xmlns="http://www.w3.org/2000/svg">
<path d="M9.00007 14.275L4.85007 16.775C4.66674 16.8916 4.47507 16.9416 4.27507 16.9249C4.07507 16.9083 3.90007 16.8416 3.75007 16.725C3.60007 16.6083 3.4834 16.4626 3.40007 16.288C3.31674 16.1126 3.30007 15.9166 3.35007 15.7L4.45007 10.975L0.77507 7.79995C0.608404 7.64995 0.504404 7.47895 0.46307 7.28695C0.42107 7.09562 0.433404 6.90829 0.50007 6.72495C0.566737 6.54162 0.666737 6.39162 0.80007 6.27495C0.933404 6.15828 1.11674 6.08328 1.35007 6.04995L6.20007 5.62495L8.07507 1.17495C8.1584 0.974952 8.28774 0.824951 8.46307 0.724951C8.63774 0.624951 8.81674 0.574951 9.00007 0.574951C9.1834 0.574951 9.36274 0.624951 9.53807 0.724951C9.71274 0.824951 9.84174 0.974952 9.92507 1.17495L11.8001 5.62495L16.6501 6.04995C16.8834 6.08328 17.0667 6.15828 17.2001 6.27495C17.3334 6.39162 17.4334 6.54162 17.5001 6.72495C17.5667 6.90829 17.5794 7.09562 17.5381 7.28695C17.4961 7.47895 17.3917 7.64995 17.2251 7.79995L13.5501 10.975L14.6501 15.7C14.7001 15.9166 14.6834 16.1126 14.6001 16.288C14.5167 16.4626 14.4001 16.6083 14.2501 16.725C14.1001 16.8416 13.9251 16.9083 13.7251 16.9249C13.5251 16.9416 13.3334 16.8916 13.1501 16.775L9.00007 14.275Z" fill="#F8F8F8"/>
</svg>
