<svg width="19" height="21" viewBox="0 0 19 21" fill="none" xmlns="http://www.w3.org/2000/svg">
<path d="M8.00008 2H12.0001C12.5501 2 13.0001 1.55 13.0001 1C13.0001 0.45 12.5501 0 12.0001 0H8.00008C7.45008 0 7.00008 0.45 7.00008 1C7.00008 1.55 7.45008 2 8.00008 2ZM17.0301 6.39L17.7801 5.64C17.965 5.45395 18.0688 5.2023 18.0688 4.94C18.0688 4.6777 17.965 4.42605 17.7801 4.24L17.7701 4.23C17.584 4.04509 17.3324 3.94131 17.0701 3.94131C16.8078 3.94131 16.5561 4.04509 16.3701 4.23L15.6201 4.98C14.0274 3.69833 12.0444 2.99969 10.0001 3C5.20008 3 1.12008 6.96 1.00008 11.76C0.967741 12.962 1.17665 14.1583 1.61447 15.2782C2.05228 16.3981 2.71012 17.4189 3.54912 18.2803C4.38812 19.1417 5.39125 19.8261 6.49925 20.2933C7.60725 20.7604 8.79764 21.0007 10.0001 21C11.6944 21.0009 13.3545 20.5232 14.7892 19.622C16.2239 18.7207 17.3749 17.4325 18.1095 15.9057C18.8442 14.379 19.1326 12.6758 18.9416 10.9923C18.7507 9.30874 18.088 7.71341 17.0301 6.39ZM11.0001 12C11.0001 12.55 10.5501 13 10.0001 13C9.45008 13 9.00008 12.55 9.00008 12V8C9.00008 7.45 9.45008 7 10.0001 7C10.5501 7 11.0001 7.45 11.0001 8V12Z" fill="white"/>
</svg>
