<?xml version="1.0" standalone="no"?>
<!DOCTYPE svg PUBLIC "-//W3C//DTD SVG 20010904//EN"
 "http://www.w3.org/TR/2001/REC-SVG-20010904/DTD/svg10.dtd">
<svg version="1.0" xmlns="http://www.w3.org/2000/svg"
 width="936.000000pt" height="936.000000pt" viewBox="0 0 936.000000 936.000000"
 preserveAspectRatio="xMidYMid meet">

<g transform="translate(0.000000,936.000000) scale(0.100000,-0.100000)"
fill="#000000" stroke="none">
<path d="M1655 7881 c-37 -16 -58 -48 -52 -81 4 -16 3 -30 -1 -30 -4 0 -29 14
-57 30 -27 16 -54 30 -60 30 -5 0 14 -14 43 -30 28 -17 52 -32 52 -35 0 -2
-25 7 -55 21 -31 13 -67 24 -81 24 -57 0 -134 -60 -134 -105 0 -9 13 -30 30
-46 32 -33 22 -47 -25 -35 -38 10 -101 -11 -124 -41 -31 -38 -27 -68 13 -100
46 -36 33 -53 -40 -53 -57 0 -84 -17 -84 -52 0 -23 30 -78 43 -78 4 0 3 -9 -3
-21 -6 -11 -9 -30 -7 -42 4 -20 4 -20 6 3 2 41 14 52 42 41 13 -5 32 -12 41
-15 16 -5 16 -9 -6 -41 -14 -20 -27 -41 -30 -48 -3 -8 -12 -4 -25 12 -12 13
-21 19 -21 14 0 -6 9 -18 19 -27 11 -10 22 -35 26 -55 11 -65 57 -108 174
-163 58 -27 120 -60 137 -73 l32 -25 -12 48 c-18 68 -50 124 -101 182 -55 62
-61 109 -19 137 24 15 29 15 52 2 41 -22 80 -111 92 -209 14 -100 30 -144 71
-186 36 -38 138 -86 229 -110 117 -31 334 -14 378 30 19 19 28 115 14 155
l-11 30 197 -69 c108 -37 217 -76 242 -85 169 -63 427 -144 443 -139 17 5 56
74 57 100 0 6 -12 9 -27 7 -18 -3 -166 43 -394 121 -202 68 -369 123 -371 120
-3 -2 -65 16 -139 42 -90 31 -139 43 -148 37 -8 -5 -20 -25 -27 -44 l-12 -34
-7 28 c-6 21 0 47 19 95 14 36 24 68 21 70 -12 13 -65 -24 -98 -68 -46 -61
-90 -95 -145 -110 -80 -21 -118 1 -165 96 -38 75 -51 136 -39 176 6 18 13 55
17 81 5 41 12 51 45 73 56 37 98 44 208 31 90 -10 100 -9 144 10 57 26 83 68
75 125 -6 47 -28 73 -73 90 -26 9 -34 18 -34 36 0 13 -4 31 -10 41 -10 20 -67
47 -77 37 -3 -3 1 -6 9 -6 26 0 68 -40 68 -64 0 -20 -6 -24 -52 -29 -28 -4
-54 -4 -57 -2 -2 3 1 16 7 30 30 66 0 123 -74 144 -45 13 -120 13 -149 2z
m423 -346 c-21 -47 -67 -58 -208 -51 l-126 7 -56 -30 -57 -29 11 24 c6 13 31
33 55 45 46 22 72 22 235 3 54 -7 108 8 133 36 24 26 27 25 13 -5z"/>
<path d="M1398 7833 c7 -3 16 -2 19 1 4 3 -2 6 -13 5 -11 0 -14 -3 -6 -6z"/>
<path d="M1448 7833 c7 -3 16 -2 19 1 4 3 -2 6 -13 5 -11 0 -14 -3 -6 -6z"/>
<path d="M1336 7799 c-14 -17 -26 -38 -26 -47 1 -9 7 -3 14 14 8 17 24 39 37
48 13 9 18 16 12 16 -6 0 -23 -14 -37 -31z"/>
<path d="M2910 7160 c0 -5 7 -10 15 -10 8 0 15 5 15 10 0 6 -7 10 -15 10 -8 0
-15 -4 -15 -10z"/>
<path d="M2780 7085 c-11 -13 -11 -19 3 -32 21 -21 49 -9 45 19 -4 28 -30 35
-48 13z"/>
<path d="M2561 7056 c-21 -26 -9 -51 24 -51 27 0 30 3 30 30 0 23 -5 31 -21
33 -11 2 -26 -4 -33 -12z"/>
<path d="M3020 7055 c-11 -13 -11 -19 3 -32 21 -21 49 -9 45 19 -4 28 -30 35
-48 13z"/>
<path d="M1240 6590 c-119 -26 -313 -86 -371 -115 -26 -14 -54 -35 -60 -47 -7
-12 -33 -49 -59 -83 -101 -128 -129 -197 -250 -610 l-78 -270 126 -62 c140
-68 288 -121 362 -130 l47 -5 12 -167 c11 -153 10 -171 -7 -236 -19 -68 -19
-70 0 -115 48 -112 260 -459 312 -509 26 -25 45 -34 74 -36 27 -2 66 -18 125
-54 160 -96 324 -149 542 -172 127 -14 538 -18 606 -6 l47 8 -5 42 c-3 23 -18
128 -34 232 -111 710 -131 846 -145 980 -8 83 -14 209 -12 281 l3 132 74 -30
c42 -16 84 -27 96 -24 23 6 115 98 115 115 0 5 -16 15 -35 21 -19 6 -35 16
-35 22 0 6 14 36 31 68 40 76 216 251 230 229 18 -29 8 2 -35 102 -25 57 -53
109 -63 114 -10 6 -43 29 -74 52 -126 94 -306 189 -400 212 -26 6 -95 17 -154
26 -58 8 -127 24 -152 35 -25 11 -47 20 -48 20 -1 0 0 -11 2 -24 10 -51 -60
-135 -135 -161 -57 -19 -148 -19 -231 0 -96 23 -223 89 -271 141 -22 24 -46
44 -53 43 -6 -1 -50 -9 -97 -19z"/>
<path d="M2960 6026 c0 -15 60 -122 89 -157 16 -19 47 -44 70 -57 54 -31 53
-22 -3 13 -50 32 -76 63 -123 150 -18 33 -33 56 -33 51z"/>
<path d="M673 5073 c9 -2 23 -2 30 0 6 3 -1 5 -18 5 -16 0 -22 -2 -12 -5z"/>
<path d="M735 5060 c27 -12 43 -12 25 0 -8 5 -22 9 -30 9 -10 0 -8 -3 5 -9z"/>
<path d="M781 5046 c10 -9 69 -36 69 -32 0 6 -55 36 -66 36 -4 0 -5 -2 -3 -4z"/>
<path d="M900 4190 c0 -63 5 -122 10 -130 8 -12 10 -12 10 5 0 11 15 50 34 87
l33 66 -43 43 -44 43 0 -114z"/>
</g>
</svg>
