<svg width="84" height="104" viewBox="0 0 84 104" fill="none" xmlns="http://www.w3.org/2000/svg">
<path d="M43.4437 88.4C44.4937 88.3133 45.3915 87.9025 46.137 87.1676C46.879 86.4292 47.25 85.54 47.25 84.5C47.25 83.2867 46.8562 82.3125 46.0687 81.5776C45.2812 80.8392 44.275 80.5133 43.05 80.6C39.4625 80.86 35.6562 79.8859 31.6312 77.6776C27.6062 75.4659 25.0687 71.4567 24.0187 65.65C23.8437 64.6967 23.3835 63.9167 22.638 63.31C21.896 62.7033 21.0437 62.4 20.0812 62.4C18.8562 62.4 17.85 62.8541 17.0625 63.7624C16.275 64.6741 16.0125 65.7367 16.275 66.95C17.7625 74.8367 21.2625 80.47 26.775 83.85C32.2875 87.23 37.8437 88.7467 43.4437 88.4ZM42 104C30.0125 104 20.0165 99.9267 12.012 91.78C4.004 83.6333 0 73.4933 0 61.36C0 52.6933 3.479 43.2692 10.437 33.0876C17.3915 22.9025 27.9125 11.8733 42 0C56.0875 11.8733 66.6103 22.9025 73.5683 33.0876C80.5228 43.2692 84 52.6933 84 61.36C84 73.4933 79.996 83.6333 71.988 91.78C63.9835 99.9267 53.9875 104 42 104Z" fill="#F8F8F8"/>
</svg>
