<svg xmlns="http://www.w3.org/2000/svg" viewBox="0 0 80.98 117.85"><defs><style>.cls-1{fill:#575a6b;}.cls-2{fill:#53c1e9;}.cls-3{fill:#88d3e7;}.cls-4{fill:#fff;}</style></defs><title>Asset 1</title><g id="Layer_2" data-name="Layer 2"><g id="Layer_1-2" data-name="Layer 1"><path class="cls-1" d="M77.92,0H2.9C.69,0-.14.9,0,3.13.16,5.08.33,7,.49,9Q1.95,26.51,3.4,44C4.21,53.9,5,63.76,5.79,73.62,6.69,84.73,7.63,95.85,8.51,107a11.5,11.5,0,0,0,8.32,10.43c.31.1.7.08.87.45H63c.23-.39.67-.31,1-.41a11.26,11.26,0,0,0,7.86-7.56,22.65,22.65,0,0,0,.76-5.56c.81-9.86,1.58-19.72,2.39-29.57q1.55-18.91,3.13-37.82Q79.59,20.13,81,3.35C81.15.92,80.33,0,77.92,0ZM67.63,108.56a7,7,0,0,1-6.69,4.87c-13.68,0-27.36,0-41,0a5.34,5.34,0,0,1-.89-.15h0A6.81,6.81,0,0,1,13,108c-.11-.58,0-.74.56-.73,2.45,0,4.9,0,7.35.05.35,0,.69,0,1,0H66.68C68,107.25,68.06,107.28,67.63,108.56ZM76.32,5.87q-.79,9.51-1.56,19C74.18,31.92,73.58,39,73,46c-.5,6.11-1,12.23-1.47,18.34q-.87,10.61-1.75,21.2C69.37,90.68,69,95.84,68.56,101c-.15,1.92-.1,1.93-2.07,1.93H21.84c-.46,0-.92,0-1.38,0-2.45,0-4.9,0-7.35.06-.58,0-.68-.24-.72-.75-.36-4.7-.75-9.4-1.14-14.09-.51-6.12-1-12.22-1.53-18.34Q9.11,62.1,8.5,54.41L7,36q-.73-9-1.46-18.11c-.33-4.23-.64-8.48-1-12.72h0c-.17-.35-.26-.68.3-.72.31,0,.62,0,.92,0H75C76.48,4.41,76.44,4.41,76.32,5.87Z"/><path class="cls-1" d="M20.23,97.84c-3.59-.24-3.67-.23-4-3.8-.5-5.45-.88-10.91-1.3-16.37L13.41,58Q12.8,50.2,12.2,42.41a2.38,2.38,0,0,1,1.74-2.65l1.47-.61c2.71-.63,5.38-1.46,8.14-1.91A37.94,37.94,0,0,1,41.93,38.4a36.37,36.37,0,0,0,22.6,0c.29-.09.58-.2.87-.28,1.92-.55,3.22.45,3.09,2.45-.55,8.22-1.13,16.44-1.68,24.66q-.63,9.12-1.22,18.25c-.26,3.9-.49,7.8-.76,11.7-.14,2-.88,2.65-2.95,2.65H21.26C20.92,97.8,20.58,97.83,20.23,97.84Z"/><path class="cls-2" d="M23.68,41.67A31.25,31.25,0,0,1,40,42.25a41,41,0,0,0,14.23,2.16,42.05,42.05,0,0,0,8.86-1.18c.71-.18,1-.12.89.69-.39,5.39-.74,10.78-1.11,16.17-.25,3.71-.51,7.41-.75,11.12q-.72,10.73-1.42,21.45c0,.56-.17.82-.8.82q-16.15,0-32.32,0a3.87,3.87,0,0,1-.49-2.32c-.26-3.47-.55-6.94-.8-10.41s-.52-6.78-.8-10.17-.53-6.79-.79-10.18c-.28-3.58-.54-7.17-.83-10.75-.18-2.21-.3-4.43-.53-6.63A1.64,1.64,0,0,1,23.68,41.67Z"/><path class="cls-3" d="M23.68,41.67c.3,3.8.61,7.59.9,11.39.17,2.21.34,4.41.48,6.62.26,3.8.52,7.6.9,11.39.24,2.39.31,4.8.49,7.19.28,3.5.61,7,.89,10.48.12,1.56.17,3.12.26,4.69-2.11,0-4.22,0-6.33,0-.55,0-.79-.12-.84-.75-.27-3.86-.58-7.71-.89-11.57Q18.78,71.43,18,61.68c-.34-4.31-.66-8.63-1-13-.12-1.56-.22-3.13-.36-4.69,0-.43-.07-.76.43-.89A39.23,39.23,0,0,1,23.68,41.67Z"/><circle class="cls-4" cx="37.57" cy="61.7" r="2.78"/><circle class="cls-4" cx="46.46" cy="69.95" r="4.47"/></g></g></svg>